<svg height="512" width="512" xmlns="http://www.w3.org/2000/svg"><path d="M233.166 135.667h-120c-4.143 0-7.5 3.358-7.5 7.5s3.357 7.5 7.5 7.5h120c4.143 0 7.5-3.358 7.5-7.5s-3.357-7.5-7.5-7.5z"/><path d="M144.549 328.727a156.754 156.754 0 01-49.009-17.731 7.497 7.497 0 00-8.784 1.03c-13.438 12.451-30.931 19.308-49.256 19.308a73.23 73.23 0 01-10.014-.684c14.516-10.125 25.801-24.531 32.053-41.363a7.5 7.5 0 00-1.569-7.751C30.26 252.09 15 213.605 15 173.167 15 85.953 85.953 15 173.167 15c76.434 0 141.863 54.483 155.578 129.549a7.5 7.5 0 0014.756-2.696C328.483 59.658 256.848 0 173.167 0 77.683 0 0 77.682 0 173.167c0 42.655 15.51 83.329 43.774 115.074-7.604 17.112-21.642 30.756-39.089 37.819a7.502 7.502 0 00.001 13.904c10.439 4.226 21.479 6.369 32.814 6.369 20.295 0 39.745-6.969 55.345-19.729a171.618 171.618 0 0049.011 16.878 7.5 7.5 0 102.693-14.755z"/><path d="M113.166 195.667c-4.143 0-7.5 3.358-7.5 7.5s3.357 7.5 7.5 7.5h84.812c4.143 0 7.5-3.358 7.5-7.5s-3.357-7.5-7.5-7.5zM240.666 173.167a7.5 7.5 0 00-7.5-7.5h-120c-4.143 0-7.5 3.358-7.5 7.5s3.357 7.5 7.5 7.5h120a7.5 7.5 0 007.5-7.5zM376.333 264.482c-13.82 0-26.895 4.629-37.5 13.163-10.604-8.533-23.679-13.163-37.5-13.163-33.084 0-60 26.916-60 60 0 31.114 16.466 61.686 47.616 88.41 23.019 19.747 45.761 30.443 46.717 30.889a7.51 7.51 0 006.334 0c.956-.446 23.698-11.142 46.717-30.889 31.15-26.724 47.616-57.296 47.616-88.41 0-33.084-26.916-60-60-60zm-37.5 164.106c-15.509-8.095-82.5-46.417-82.5-104.106 0-24.813 20.187-45 45-45 12.187 0 23.602 4.802 32.143 13.521a7.498 7.498 0 0010.714.001c8.542-8.719 19.957-13.521 32.143-13.521 24.813 0 45 20.187 45 45 0 57.692-67 96.016-82.5 104.105z"/><path d="M507.314 491.727c-17.446-7.063-31.485-20.707-39.09-37.819C496.49 422.162 512 381.489 512 338.833c0-95.484-77.683-173.167-173.167-173.167s-173.166 77.683-173.166 173.167S243.349 512 338.833 512c28.006 0 55.66-6.808 80.321-19.73C434.755 505.031 454.205 512 474.5 512c11.335 0 22.376-2.143 32.814-6.37a7.5 7.5 0 000-13.903zM474.5 497c-18.324 0-35.817-6.857-49.257-19.308a7.493 7.493 0 00-8.784-1.03C392.889 489.967 366.046 497 338.833 497c-87.213 0-158.166-70.953-158.166-158.167s70.953-158.167 158.166-158.167C426.047 180.667 497 251.62 497 338.833c0 40.438-15.261 78.924-42.971 108.368a7.497 7.497 0 00-1.568 7.751c6.252 16.833 17.537 31.239 32.053 41.363-3.298.456-6.64.685-10.014.685z"/></svg>