<?xml version="1.0" encoding="iso-8859-1"?>
<!-- Generator: Adobe Illustrator 19.0.0, SVG Export Plug-In . SVG Version: 6.00 Build 0)  -->
<svg version="1.1" id="Capa_1" xmlns="http://www.w3.org/2000/svg" xmlns:xlink="http://www.w3.org/1999/xlink" x="0px" y="0px"
	 viewBox="0 0 512 512" style="enable-background:new 0 0 512 512;" xml:space="preserve">
<path style="fill:#303C42;" d="M256,0C114.844,0,0,114.844,0,256s114.844,256,256,256s256-114.844,256-256S397.156,0,256,0z"/>
<path style="fill:#FED600;" d="M256,490.667C126.604,490.667,21.333,385.396,21.333,256S126.604,21.333,256,21.333
	S490.667,126.604,490.667,256S385.396,490.667,256,490.667z"/>
<path style="opacity:0.1;fill:#010101;enable-background:new    ;" d="M407.888,77.445C442.798,118.421,464,171.411,464,229.333
	C464,358.729,358.729,464,229.333,464c-57.922,0-110.913-21.202-151.888-56.112c43.077,50.563,107.081,82.779,178.555,82.779
	c129.396,0,234.667-105.271,234.667-234.667C490.667,184.526,458.451,120.522,407.888,77.445z"/>
<g>
	<path style="fill:#303C42;" d="M154.667,234.667h-37.333c-5.896,0-10.667,4.771-10.667,10.667c0,5.896,4.771,10.667,10.667,10.667
		h21.333v10.667c0,5.896,4.771,10.667,10.667,10.667c5.896,0,10.667-4.771,10.667-10.667v-11.206c18.046-2.615,32-18.036,32-36.794
		c0-20.583-16.75-37.333-37.333-37.333H144c-8.823,0-16-7.177-16-16c0-8.823,7.177-16,16-16h37.333
		c5.896,0,10.667-4.771,10.667-10.667S187.229,128,181.333,128H160v-10.667c0-5.896-4.771-10.667-10.667-10.667
		c-5.896,0-10.667,4.771-10.667,10.667v11.206c-18.046,2.615-32,18.036-32,36.794c0,20.583,16.75,37.333,37.333,37.333h10.667
		c8.823,0,16,7.177,16,16S163.49,234.667,154.667,234.667z"/>
	<path style="fill:#303C42;" d="M357.333,149.333h37.333c5.896,0,10.667-4.771,10.667-10.667S400.563,128,394.667,128h-21.333
		v-10.667c0-5.896-4.771-10.667-10.667-10.667c-5.896,0-10.667,4.771-10.667,10.667v11.206c-18.046,2.615-32,18.036-32,36.794
		c0,20.583,16.75,37.333,37.333,37.333H368c8.823,0,16,7.177,16,16s-7.177,16-16,16h-37.333c-5.896,0-10.667,4.771-10.667,10.667
		c0,5.896,4.771,10.667,10.667,10.667H352v10.667c0,5.896,4.771,10.667,10.667,10.667c5.896,0,10.667-4.771,10.667-10.667v-11.206
		c18.046-2.615,32-18.036,32-36.794c0-20.583-16.75-37.333-37.333-37.333h-10.667c-8.823,0-16-7.177-16-16
		C341.333,156.51,348.51,149.333,357.333,149.333z"/>
	<path style="fill:#303C42;" d="M394.677,298.823l-277.333-0.156h-0.01c-3.26,0-6.344,1.49-8.365,4.042
		c-2.021,2.563-2.771,5.906-2.021,9.073c7.862,33.257,31.797,66.025,64.294,88.749c2.957,41.306,36.049,68.803,84.758,68.803
		c48.703,0,81.794-27.493,84.757-68.793c32.449-22.591,56.384-55.305,64.285-88.582c0.76-3.177,0.021-6.521-2-9.083
		C401.021,300.323,397.938,298.823,394.677,298.823z"/>
</g>
<path style="fill:#E53A35;" d="M256,448c-28.396,0-61.385-12.927-63.854-48.948c18.931-17.574,36.346-18.284,53.188-10.333v16.615
	c0,5.896,4.771,10.667,10.667,10.667c5.896,0,10.667-4.771,10.667-10.667v-16.168C273.577,386.03,280.681,384,288,384
	c10.969,0,20.667,4.531,31.854,15.021C317.406,435.063,284.406,448,256,448z"/>
<g>
	<path style="opacity:0.2;fill:#FFFFFF;enable-background:new    ;" d="M318.135,408.405c0.743-2.993,1.488-5.99,1.719-9.384
		C308.667,388.531,298.969,384,288,384c-7.319,0-14.423,2.03-21.333,5.165v10.811c6.91-3.135,14.014-5.165,21.333-5.165
		C298.391,394.811,307.68,399.06,318.135,408.405z"/>
	<path style="opacity:0.2;fill:#FFFFFF;enable-background:new    ;" d="M245.333,399.53v-10.811
		c-16.841-7.951-34.257-7.241-53.188,10.333c0.233,3.395,0.979,6.391,1.725,9.384C212.132,392.397,229.009,391.823,245.333,399.53z"
		/>
</g>
<path style="fill:#B72025;" d="M331.402,380.733c-10.65-9.38-24.621-18.066-43.402-18.066c-11.052,0-21.792,2.51-32,7.469
	c-10.208-4.958-20.948-7.469-32-7.469c-18.607,0-32.62,8.701-43.353,18.081c-22.464-16.484-40.038-38.035-48.835-60.737
	l248.365,0.135C371.367,342.854,353.807,364.345,331.402,380.733z"/>
<path style="opacity:0.1;fill:#010101;enable-background:new    ;" d="M170.569,368.864c-11.624-13.768-1.424-34.923,16.595-34.913
	l186.213,0.102c2.549-4.576,4.971-9.191,6.801-13.906l-248.365-0.135c8.797,22.702,26.371,44.253,48.835,60.737
	c0.186-0.163,0.413-0.307,0.6-0.469C177.461,376.612,173.891,372.798,170.569,368.864z"/>
<linearGradient id="SVGID_1_" gradientUnits="userSpaceOnUse" x1="-45.5784" y1="639.555" x2="-23.8278" y2="629.4138" gradientTransform="matrix(21.3333 0 0 -21.3333 996.3334 13791.667)">
	<stop  offset="0" style="stop-color:#FFFFFF;stop-opacity:0.2"/>
	<stop  offset="1" style="stop-color:#FFFFFF;stop-opacity:0"/>
</linearGradient>
<path style="fill:url(#SVGID_1_);" d="M256,0C114.844,0,0,114.844,0,256s114.844,256,256,256s256-114.844,256-256S397.156,0,256,0z"
	/>
<g>
</g>
<g>
</g>
<g>
</g>
<g>
</g>
<g>
</g>
<g>
</g>
<g>
</g>
<g>
</g>
<g>
</g>
<g>
</g>
<g>
</g>
<g>
</g>
<g>
</g>
<g>
</g>
<g>
</g>
</svg>
